<svg xmlns="http://www.w3.org/2000/svg" width="15" height="15" viewBox="0 0 15 15">
  <path fill="#0B3356" d="M14.73,13.41 L11.6,10.34 C12.5044621,9.22207262 12.9985678,7.82798859 13,6.39 C12.9670056,2.83163634 10.0584085,-0.0277383645 6.5,7.1608843e-16 C2.94382384,-0.0222281326 0.0384657007,2.83396241 7.17204074e-16,6.39 C0.0384657007,9.94603759 2.94382384,12.8022281 6.5,12.78 C7.94941603,12.7759573 9.35642524,12.2905391 10.5,11.4 L13.64,14.48 C13.7863606,14.6167367 13.9797136,14.6919295 14.18,14.6901223 C14.3776226,14.6935911 14.5684687,14.6179728 14.71,14.48 C14.855884,14.3380611 14.938737,14.1435367 14.94,13.94 C14.9459017,13.741965 14.8699388,13.5502492 14.73,13.41 Z M6.5,1.5 C9.21903029,1.49934192 11.4401814,3.67162772 11.5,6.39 C11.4841833,7.70020026 10.9484896,8.9504437 10.0107865,9.86564193 C9.07308342,10.7808401 7.81019791,11.28601 6.5,11.27 C5.18902017,11.2886823 3.92459749,10.7843863 2.98630956,9.86861725 C2.04802164,8.95284823 1.51316418,7.70104685 1.5,6.39 C1.51318186,5.07805708 2.04771726,3.82524726 2.98570835,2.90789197 C3.92369944,1.99053669 5.18808844,1.48399844 6.5,1.5 Z"/>
</svg>
